<svg width="30" height="32" viewBox="0 0 30 32" fill="none" xmlns="http://www.w3.org/2000/svg">
<path d="M29.7022 16.2367H26.8976V30.731C26.8976 31.047 26.6446 31.3043 26.334 31.3043H16.1507C16.0812 31.3043 16.0472 31.219 16.0957 31.1697L20.8583 26.324C25.4716 21.6304 19.6251 15.682 15.0118 20.3756C10.3592 15.642 4.51264 21.5904 9.16524 26.324L13.9279 31.1697C13.9764 31.219 13.9424 31.3043 13.8729 31.3043H3.66599C3.35538 31.3043 3.10244 31.047 3.10244 30.731V16.2367H0.297771C0.0369635 16.2367 -0.0980276 15.918 0.0828342 15.726L14.6671 0.145009C14.848 -0.0483364 15.152 -0.0483364 15.3329 0.145009L29.9172 15.726C30.098 15.918 29.963 16.2367 29.7022 16.2367Z" fill="#828ED8"/>
</svg>
