<svg width="65" height="65" viewBox="0 0 65 65" fill="none" xmlns="http://www.w3.org/2000/svg">
<circle cx="32.5" cy="32.5" r="32.5" fill="white"/>
<path d="M42.6719 19.5432C42.5611 22.5245 40.3938 25.9828 38.0092 25.9088C35.5946 25.8338 33.6157 22.1564 33.7968 19.0912C33.9696 16.1819 36.1493 12.7996 38.5433 12.9086C40.9496 13.0176 42.7805 16.6189 42.6719 19.5442V19.5432Z" fill="#B1BCFF"/>
<path d="M31.3511 19.1633C31.7247 22.1246 30.1442 25.869 27.7772 26.156C25.3802 26.447 22.8299 23.1147 22.5122 20.0604C22.211 17.1601 23.8152 13.4898 26.1978 13.2348C28.5928 12.9778 30.9847 16.2581 31.3511 19.1633Z" fill="#B1BCFF"/>
<path d="M21.5589 25.4029C22.3993 27.5181 21.9491 30.5584 20.26 31.1925C18.5491 31.8345 16.0341 29.8333 15.2175 27.6381C14.4422 25.5549 14.9246 22.5647 16.6313 21.9526C18.3462 21.3365 20.735 23.3277 21.5589 25.4029Z" fill="#B1BCFF"/>
<path d="M50.0367 26.9479C49.186 29.0591 46.7371 31.0163 45.046 30.3872C43.333 29.7502 42.8652 26.6349 43.7884 24.4807C44.6651 22.4355 47.1035 20.5363 48.7927 21.1924C50.4911 21.8514 50.872 24.8767 50.0378 26.9489L50.0367 26.9479Z" fill="#B1BCFF"/>
<path d="M33.7988 40.7746C32.9666 38.4544 33.4531 36.5612 35.1681 35.4451C37.5465 33.899 39.8856 35.4561 42.1502 36.9633C43.7679 38.0404 45.3028 39.0614 46.7662 38.9534C46.8501 38.3604 46.8749 37.7173 46.8118 37.0393C45.3348 37.3183 43.7761 36.3452 42.1305 35.3151C39.7438 33.821 37.2764 32.2758 34.5046 33.784C32.2442 35.0141 31.1088 37.6313 31.7422 40.1485C32.859 44.583 36.2114 47.7473 39.6092 49.4444C39.692 49.3794 39.7748 49.3144 39.8576 49.2474C39.9777 49.1504 40.0957 49.0524 40.2116 48.9554C40.3565 48.8334 40.4993 48.7093 40.638 48.5863C40.7105 48.5233 40.7757 48.4583 40.8461 48.3953C37.6003 46.6092 34.8017 43.5709 33.7988 40.7746Z" fill="#B1BCFF"/>
<path d="M30.9889 40.3265C30.2727 37.4842 31.5623 34.5249 34.1239 33.1308C37.3055 31.3996 40.0937 33.1458 42.5529 34.6859C44.1457 35.683 45.5275 36.5461 46.7084 36.2941C46.6981 36.2391 46.6918 36.1851 46.6805 36.1291C46.5614 35.566 46.3762 34.982 46.1278 34.4039C44.8351 34.4979 43.4906 33.6778 41.9619 32.7418C39.8961 31.4766 37.6025 30.0745 34.9281 30.6626C34.2967 31.0516 33.6716 31.5316 33.063 32.1197C32.973 32.0297 32.8094 31.8717 32.5828 31.6777C29.8142 33.4938 28.4697 36.8791 29.2946 40.1274C30.7053 45.68 34.1239 49.0743 37.647 50.8284C37.706 50.7914 37.765 50.7544 37.825 50.7164C37.9927 50.6084 38.1614 50.4964 38.3301 50.3824C38.5371 50.2414 38.7441 50.0934 38.9532 49.9404C35.4828 48.1142 32.1274 44.8479 30.9889 40.3255V40.3265Z" fill="#B1BCFF"/>
<path d="M36.2104 40.0596C35.9775 39.4526 36.0914 38.7875 36.5126 38.2795C36.9328 37.7744 37.5786 37.5244 38.2369 37.6134C39.6083 37.7964 40.962 38.6435 42.2713 39.4626C43.6178 40.3057 44.8743 41.0897 46.1215 41.2687C46.3078 40.8247 46.49 40.2996 46.6255 39.7076C44.954 39.7366 43.3074 38.6445 41.7093 37.5804C39.5658 36.1533 37.5414 34.8051 35.6008 36.0663C33.8113 37.2304 34.0307 39.1355 34.5306 40.5277C35.4952 43.2169 38.2918 46.1632 41.4392 47.8384C41.5168 47.7623 41.5965 47.6863 41.6721 47.6103C41.8801 47.4013 42.0809 47.1923 42.2713 46.9843C42.3986 46.8463 42.5239 46.7092 42.6439 46.5712C42.6739 46.5372 42.6998 46.5042 42.7298 46.4712C39.7552 44.9131 37.0829 42.3458 36.2083 40.0596H36.2104Z" fill="#B1BCFF"/>
<path d="M28.541 40.3076C27.6571 36.8293 29.0513 33.2069 31.9555 31.1877C31.5208 30.8747 30.9753 30.5387 30.3285 30.2487C27.0486 32.9219 25.6492 37.3083 26.9709 41.5167C28.452 46.2322 31.467 49.8595 35.5956 51.9827C35.6525 51.9547 35.7073 51.9287 35.7643 51.8997C36.0168 51.7697 36.2766 51.6337 36.5405 51.4866C36.6544 51.4226 36.7724 51.3546 36.8883 51.2876C33.3372 49.3945 29.959 45.8941 28.54 40.3076H28.541Z" fill="#B1BCFF"/>
<path d="M26.2289 41.7348C24.8565 37.3664 26.2289 32.8159 29.5202 29.9347C28.7315 29.6726 27.8331 29.5006 26.8364 29.5206C24.1993 32.6969 23.3702 37.3294 24.7447 42.4588C25.5944 45.6281 27.5682 48.6304 30.6111 51.3837C30.7674 51.5257 30.7756 51.7627 30.6287 51.9137C30.5541 51.9907 30.4538 52.0297 30.3523 52.0317C30.4113 52.0607 30.4724 52.0907 30.5303 52.1187C30.6121 52.1577 30.6928 52.1957 30.7736 52.2327C30.9474 52.3138 31.1244 52.3838 31.3056 52.4418C31.4722 52.4978 31.643 52.5448 31.8137 52.5818C32.0932 52.6418 32.3768 52.6788 32.6624 52.6918C32.8332 52.7008 33.005 52.6998 33.1779 52.6918C33.4708 52.6758 33.7626 52.6368 34.0504 52.5738C34.2139 52.5378 34.3785 52.4928 34.5399 52.4398C34.601 52.4198 34.661 52.3968 34.721 52.3748C30.6701 50.1295 27.711 46.4532 26.2279 41.7338L26.2289 41.7348Z" fill="#B1BCFF"/>
<path d="M23.9932 42.6476C22.6311 37.5651 23.3442 32.9367 25.7806 29.6134C24.758 29.7714 23.7883 30.1245 22.9085 30.6255C21.4512 34.4349 21.5868 38.5242 22.1043 40.5234C22.1561 40.7244 22.0298 40.9275 21.8218 40.9785C21.7897 40.9865 21.7586 40.9895 21.7276 40.9895C21.5537 40.9895 21.3953 40.8755 21.3519 40.7054C20.8157 38.6362 20.7454 34.8519 21.8259 31.3526C20.3614 32.4977 19.2612 34.0798 18.7654 35.819C17.6787 39.6373 19.9205 42.7476 20.2569 43.1967C20.9058 44.1888 21.8249 45.4349 23.0762 46.745C23.2014 46.876 23.3308 47.009 23.4633 47.141C23.6599 47.3371 23.8628 47.5351 24.0739 47.7331C24.1981 47.8471 24.3254 47.9641 24.4548 48.0801C24.6711 48.2751 24.8957 48.4682 25.1286 48.6622C25.2693 48.7822 25.4153 48.9002 25.5633 49.0172C25.7102 49.1352 25.8593 49.2522 26.0125 49.3682C26.0932 49.4293 26.1739 49.4903 26.2536 49.5493C26.4099 49.6653 26.5641 49.7783 26.7183 49.8873C26.9667 50.0643 27.2141 50.2313 27.4604 50.3923C27.6302 50.5044 27.7978 50.6104 27.9645 50.7144C28.2253 50.8784 28.4851 51.0324 28.7407 51.1794C28.9115 51.2764 29.0812 51.3734 29.2489 51.4634C29.5056 51.6035 29.7581 51.7355 30.0055 51.8595C26.8974 49.0272 24.874 45.9279 23.9942 42.6466L23.9932 42.6476Z" fill="#B1BCFF"/>
<path d="M45.7654 33.6559C45.3162 32.8168 44.7304 32.0157 44.0173 31.3386C43.4025 31.0576 42.7639 30.6596 42.0808 30.2325C41.7703 30.0385 41.4495 29.8375 41.1173 29.6395C40.6712 29.5105 40.2023 29.4265 39.7107 29.3965C38.7585 29.3365 37.7618 29.4595 36.7589 29.7965C38.8889 29.9755 40.7571 31.1176 42.3758 32.1087C43.652 32.8898 44.7853 33.5848 45.7654 33.6559Z" fill="#B1BCFF"/>
<path d="M40.3979 40.8085C41.4463 41.6796 43.0547 42.8257 44.9135 43.5057C45.1143 43.1807 45.2913 42.8747 45.4455 42.5966C45.5335 42.4526 45.6598 42.2376 45.7995 41.9646C44.424 41.7026 43.0982 40.8725 41.85 40.0924C40.5552 39.2823 39.3318 38.5163 38.1312 38.3562C37.7452 38.3042 37.3653 38.4513 37.1179 38.7493C36.8685 39.0493 36.8012 39.4424 36.9379 39.7994C37.7565 41.9396 40.3751 44.4098 43.2306 45.877C43.7202 45.2729 44.1404 44.6918 44.4985 44.1518C42.5941 43.4277 40.964 42.2676 39.8917 41.3765C39.7292 41.2415 39.7106 41.0045 39.8503 40.8475C39.9901 40.6905 40.2343 40.6725 40.3979 40.8075V40.8085Z" fill="#B1BCFF"/>
</svg>
