<svg width="34" height="24" viewBox="0 0 34 24" fill="none" xmlns="http://www.w3.org/2000/svg">
<path d="M26.2727 0C23.63 0 22.0227 0.495 21.0955 0.915C19.9055 0.345 18.5455 0 17 0C15.4545 0 14.0945 0.345 12.9045 0.915C11.9773 0.495 10.37 0 7.72727 0C3.09091 0 0 12 0 15C0 16.245 2.04 17.385 4.85273 17.85C5.84182 21.21 10.5091 23.775 16.2273 24V17.58C15.3155 17.025 13.9091 16.02 13.9091 15C13.9091 13.5 17 13.5 17 13.5C17 13.5 20.0909 13.5 20.0909 15C20.0909 16.02 18.6845 17.025 17.7727 17.58V24C23.4909 23.775 28.1582 21.21 29.1473 17.85C31.96 17.385 34 16.245 34 15C34 12 30.9091 0 26.2727 0ZM4.86818 14.805C4.09545 14.625 3.49273 14.415 3.09091 14.25C3.47727 10.095 6.49091 3.6 7.80455 3C8.63909 3 9.27273 3.09 9.84455 3.165C6.59909 6.63 5.31636 12.06 4.86818 14.805ZM12.3636 12C11.9538 12 11.5607 11.842 11.2708 11.5607C10.981 11.2794 10.8182 10.8978 10.8182 10.5C10.8182 9.69 11.5136 9 12.3636 9C12.7735 9 13.1666 9.15804 13.4564 9.43934C13.7463 9.72064 13.9091 10.1022 13.9091 10.5C13.9091 11.34 13.2136 12 12.3636 12ZM21.6364 12C21.2265 12 20.8334 11.842 20.5436 11.5607C20.2537 11.2794 20.0909 10.8978 20.0909 10.5C20.0909 9.69 20.7864 9 21.6364 9C22.0462 9 22.4393 9.15804 22.7292 9.43934C23.019 9.72064 23.1818 10.1022 23.1818 10.5C23.1818 11.34 22.4864 12 21.6364 12ZM29.1318 14.805C28.6836 12.06 27.4009 6.63 24.1555 3.165C24.7273 3.09 25.3609 3 26.1955 3C27.5091 3.6 30.5227 10.095 30.9091 14.25C30.5227 14.415 29.92 14.625 29.1318 14.805Z" fill="#828ED8"/>
</svg>
