<svg width="30" height="32" viewBox="0 0 30 32" fill="none" xmlns="http://www.w3.org/2000/svg">
<path d="M15.9662 23.652C14.4531 23.6042 13.2111 22.4188 13.1207 20.9426C13.0605 19.9671 13.4971 19.0873 14.2085 18.524C15.2323 17.7142 15.9361 16.584 16.2635 15.3361C16.6399 13.8857 17.5583 12.3543 19.7564 12.3248C19.7677 12.3248 19.7752 12.3248 19.7865 12.3248V4.42486C19.7865 3.20269 19.2784 2.09463 18.4579 1.2958C17.6411 0.496969 16.5082 0 15.2586 0C12.7632 0 10.7345 1.98051 10.7345 4.42486V11.1763H4.5279C2.02871 11.1763 0 13.1605 0 15.6048C0 18.0492 2.02871 20.0297 4.5279 20.0297H10.7345V26.7811C10.7345 29.2254 12.7632 31.2096 15.2586 31.2096C17.754 31.2096 19.7865 29.2254 19.7865 26.7811V22.8716C18.9095 22.89 18.0438 23.0741 17.2384 23.4164C16.8507 23.5821 16.4216 23.6667 15.9662 23.652ZM16.7453 5.91208C17.9912 5.89736 19.0149 7.07904 19.0337 8.5589C19.0526 10.0351 18.0627 11.2462 16.8168 11.2646C15.571 11.2793 14.5472 10.0977 14.5284 8.6178C14.5096 7.13794 15.4995 5.93049 16.7453 5.91208ZM10.3731 14.4968C10.3543 13.0206 11.3442 11.8094 12.59 11.791C13.8359 11.7763 14.8596 12.958 14.8785 14.4379C14.8973 15.9177 13.9074 17.1252 12.6616 17.1436C11.4157 17.1583 10.392 15.9766 10.3731 14.4968Z" fill="#828ED8"/>
<path d="M26.9077 11.6033C25.6618 11.618 24.672 12.8291 24.6908 14.309C24.7096 15.7889 25.7371 16.9705 26.9792 16.9558C28.225 16.9411 29.2149 15.73 29.1961 14.2501C29.1773 12.7739 28.1497 11.5886 26.9077 11.6033Z" fill="#828ED8"/>
<path d="M22.662 11.1873C23.9079 11.1725 24.8977 9.96141 24.8789 8.48155C24.8601 7.00169 23.8326 5.82001 22.5905 5.83473C21.3447 5.84946 20.3548 7.06059 20.3736 8.54045C20.3924 10.0203 21.42 11.202 22.662 11.1873Z" fill="#828ED8"/>
</svg>
