<svg width="24" height="32" viewBox="0 0 24 32" fill="none" xmlns="http://www.w3.org/2000/svg">
<path d="M23.2585 10.8829C23.2585 8.70013 22.0488 7.35135 19.9805 7.35135H18.722C18.3317 2.87259 15.8829 0 12.2634 0C8.6439 0 6.05854 2.86229 5.63902 7.28957L3.90244 7.36165C1.83415 7.36165 0.829268 9.36937 0.829268 11.5521L0 29.2716C0 30.7748 1.53171 32 2.96585 32H20.9659C23.0341 32 24 30.3115 24 28.1184L23.2683 10.8726L23.2585 10.8829ZM12.2634 1.51351C15.1122 1.51351 16.9951 3.69627 17.3268 7.35135H7.08293C7.4439 3.74775 9.42439 1.51351 12.2634 1.51351ZM16.6146 13.4569C16.6146 14.8263 15.7561 15.9279 14.6927 15.9382C13.6293 15.9485 12.761 14.8366 12.7512 13.4775C12.7512 12.1081 13.6098 11.0064 14.6732 10.9961C15.7366 10.9961 16.6049 12.0978 16.6146 13.4569ZM11.6098 13.4775C11.6098 14.8468 10.7512 15.9485 9.6878 15.9588C8.62439 15.9588 7.7561 14.8571 7.74634 13.4981C7.74634 12.1287 8.60488 11.027 9.66829 11.0167C10.7317 11.0064 11.6 12.1184 11.6098 13.4775ZM4.14634 18.8829C4.14634 17.5135 5.00488 16.4118 6.06829 16.4015C7.13171 16.3912 8 17.5032 8.00976 18.8623C8.00976 20.2317 7.15122 21.3333 6.0878 21.3436C5.02439 21.3539 4.1561 20.242 4.14634 18.8829ZM15.3756 27.3668C15.0732 27.3565 14.7902 27.2844 14.5268 27.1712C13.8439 26.8726 13.1122 26.6976 12.3707 26.7078H12.1659C11.4049 26.7078 10.6439 26.8726 9.94146 27.1918C9.60976 27.3359 9.23902 27.4183 8.84878 27.3977C7.55122 27.3359 6.49756 26.2342 6.43902 24.8649C6.4 23.9691 6.78049 23.1557 7.39512 22.6409C8.27317 21.8996 8.8878 20.8597 9.18049 19.7169C9.51219 18.3784 10.3122 16.9781 12.1951 16.9678C14.0585 16.9678 14.8683 18.3681 15.2195 19.7066C15.522 20.8597 16.1756 21.879 17.0634 22.6306C17.639 23.1145 18.0098 23.8662 18.0098 24.7001C18.0098 26.2136 16.8195 27.4389 15.3756 27.3771V27.3668ZM18.3415 21.3024C17.278 21.3024 16.4098 20.2008 16.4 18.8417C16.4 17.4723 17.2585 16.3707 18.322 16.3604C19.3854 16.3501 20.2537 17.462 20.2634 18.8211C20.2634 20.1905 19.4049 21.2921 18.3415 21.3024Z" fill="#828ED8"/>
</svg>
